<svg xmlns="http://www.w3.org/2000/svg" xmlns:xlink="http://www.w3.org/1999/xlink" version="1.1" width="256" height="256" viewBox="0 0 256 256" xml:space="preserve">
<g style="stroke: none; stroke-width: 0; stroke-dasharray: none; stroke-linecap: butt; stroke-linejoin: miter; stroke-miterlimit: 10; fill: none; fill-rule: nonzero; opacity: 1;" transform="translate(1.4065934065934016 1.4065934065934016) scale(2.81 2.81)">
	<path d="M 65.124 30.333 c 5.952 -2.222 10.209 -7.949 10.209 -14.667 C 75.333 7.028 68.306 0 59.667 0 H 45 H 30.333 c -8.639 0 -15.667 7.028 -15.667 15.667 c 0 6.718 4.258 12.444 10.21 14.667 c -5.952 2.222 -10.21 7.949 -10.21 14.667 c 0 6.718 4.258 12.444 10.21 14.667 c -5.952 2.222 -10.21 7.949 -10.21 14.666 C 14.667 82.972 21.695 90 30.333 90 S 46 82.972 46 74.333 V 59.667 v -7.031 c 2.685 4.785 7.801 8.031 13.667 8.031 c 8.639 0 15.666 -7.028 15.666 -15.667 C 75.333 38.282 71.076 32.556 65.124 30.333 z M 73.333 15.667 c 0 7.536 -6.131 13.667 -13.666 13.667 H 46 V 2 h 13.667 C 67.202 2 73.333 8.131 73.333 15.667 z M 46 31.333 h 6.03 c -2.523 1.416 -4.615 3.507 -6.03 6.03 V 31.333 z M 16.667 15.667 C 16.667 8.131 22.797 2 30.333 2 H 44 v 27.333 H 30.333 C 22.797 29.333 16.667 23.203 16.667 15.667 z M 44 74.333 C 44 81.869 37.869 88 30.333 88 c -7.536 0 -13.667 -6.131 -13.667 -13.667 c 0 -7.535 6.131 -13.666 13.667 -13.666 H 44 V 74.333 z M 44 58.667 H 30.333 c -7.536 0 -13.667 -6.131 -13.667 -13.667 c 0 -7.536 6.131 -13.667 13.667 -13.667 H 44 V 58.667 z M 59.667 58.667 C 52.131 58.667 46 52.536 46 45 c 0 -7.536 6.131 -13.667 13.667 -13.667 c 7.535 0 13.666 6.131 13.666 13.667 C 73.333 52.536 67.202 58.667 59.667 58.667 z" style="stroke: none; stroke-width: 1; stroke-dasharray: none; stroke-linecap: butt; stroke-linejoin: miter; stroke-miterlimit: 10; fill: rgb(255,255,255); fill-rule: nonzero; opacity: 1;" transform=" matrix(1 0 0 1 0 0) " stroke-linecap="round"/>
</g>
</svg>