<svg width="85" height="56" viewBox="0 0 85 56" fill="none" xmlns="http://www.w3.org/2000/svg">
<path d="M0.368 34.664C0.368 16.088 16.568 0.319996 38.168 2.04799V13.712C26.072 13.28 17.432 19.112 15.488 28.616C17.216 27.968 18.944 27.752 20.456 27.752C28.664 27.752 34.496 33.8 34.496 41.36C34.496 49.784 28.016 55.616 18.512 55.616C7.064 55.616 0.368 47.192 0.368 34.664ZM46.376 34.664C46.376 16.088 62.576 0.319996 84.176 2.04799V13.712C72.08 13.28 63.44 19.112 61.496 28.616C63.224 27.968 64.952 27.752 66.464 27.752C74.456 27.752 80.504 33.8 80.504 41.36C80.504 49.784 73.808 55.616 64.52 55.616C53.072 55.616 46.376 47.192 46.376 34.664Z" fill="#FCF0E6"/>
</svg>
